<?xml version="1.0" encoding="UTF-8" standalone="no"?>
<svg
   height="800"
   viewBox="0 0 400 400"
   width="800"
   fill="#000000"
   version="1.1"
   id="svg6"
   sodipodi:docname="info_800x800_black.svg"
   inkscape:version="1.2 (dc2aedaf03, 2022-05-15)"
   inkscape:export-filename="..\UI-ICONS\Info.png"
   inkscape:export-xdpi="96"
   inkscape:export-ydpi="96"
   xmlns:inkscape="http://www.inkscape.org/namespaces/inkscape"
   xmlns:sodipodi="http://sodipodi.sourceforge.net/DTD/sodipodi-0.dtd"
   xmlns="http://www.w3.org/2000/svg"
   xmlns:svg="http://www.w3.org/2000/svg">
  <defs
     id="defs10" />
  <sodipodi:namedview
     id="namedview8"
     pagecolor="#ffffff"
     bordercolor="#666666"
     borderopacity="1.0"
     inkscape:showpageshadow="2"
     inkscape:pageopacity="0.0"
     inkscape:pagecheckerboard="0"
     inkscape:deskcolor="#d1d1d1"
     showgrid="true"
     inkscape:zoom="0.66861979"
     inkscape:cx="441.2074"
     inkscape:cy="470.37196"
     inkscape:window-width="2560"
     inkscape:window-height="1377"
     inkscape:window-x="-8"
     inkscape:window-y="-8"
     inkscape:window-maximized="1"
     inkscape:current-layer="svg6">
    <inkscape:grid
       type="xygrid"
       id="grid538" />
  </sodipodi:namedview>
  <path
     d="M 0,0 H 24 V 24 H 0 Z"
     fill="none"
     id="path2" />
  <path
     d="m 184,120 h 32 v 32 h -32 z m 0,64 h 32 v 96 H 184 Z M 200,40 c -88.32,0 -160,71.68 -160,160 0,88.32 71.68,160 160,160 88.32,0 160,-71.68 160,-160 C 360,111.68 288.32,40 200,40 Z m 0,288 C 129.44,328 72,270.56 72,200 72,129.44 129.44,72 200,72 c 70.56,0 128,57.44 128,128 0,70.56 -57.44,128 -128,128 z"
     id="path4"
     style="stroke-width:16" />
</svg>
