<?xml version="1.0" encoding="UTF-8" standalone="no"?>
<svg
   enable-background="new 0 0 20 20"
   height="500"
   viewBox="0 0 104.7804 208.33333"
   width="251.47296"
   fill="#000000"
   version="1.1"
   id="svg12"
   sodipodi:docname="Podium Medals.svg"
   inkscape:version="1.2 (dc2aedaf03, 2022-05-15)"
   xml:space="preserve"
   xmlns:inkscape="http://www.inkscape.org/namespaces/inkscape"
   xmlns:sodipodi="http://sodipodi.sourceforge.net/DTD/sodipodi-0.dtd"
   xmlns:xlink="http://www.w3.org/1999/xlink"
   xmlns="http://www.w3.org/2000/svg"
   xmlns:svg="http://www.w3.org/2000/svg"><defs
     id="defs16"><linearGradient
       inkscape:collect="always"
       xlink:href="#BronzeMedal"
       id="linearGradient3987"
       gradientUnits="userSpaceOnUse"
       gradientTransform="matrix(0.51515151,0,0,0.31050232,25.658708,41.441424)"
       x1="57.057423"
       y1="44.683849"
       x2="56.992729"
       y2="58.786999" /><linearGradient
       id="BronzeMedal"><stop
         style="stop-color:#ffdb93;stop-opacity:1;"
         offset="0.36712328"
         id="stop3990" /><stop
         style="stop-color:#b36008;stop-opacity:1;"
         offset="0.99178082"
         id="stop3992" /></linearGradient><linearGradient
       inkscape:collect="always"
       xlink:href="#SilverMedal"
       id="linearGradient4029"
       gradientUnits="userSpaceOnUse"
       gradientTransform="matrix(0.51515151,0,0,0.31050232,25.594015,36.071873)"
       x1="57.057423"
       y1="44.683849"
       x2="56.992729"
       y2="58.786999" /><linearGradient
       id="SilverMedal"><stop
         style="stop-color:#f9f8ec;stop-opacity:1;"
         offset="0.36712328"
         id="stop4032" /><stop
         style="stop-color:#726f5f;stop-opacity:1;"
         offset="0.99178082"
         id="stop4034" /></linearGradient><linearGradient
       inkscape:collect="always"
       xlink:href="#GoldMedal"
       id="linearGradient3946"
       x1="57.057423"
       y1="44.683849"
       x2="56.992729"
       y2="58.786999"
       gradientUnits="userSpaceOnUse"
       gradientTransform="matrix(0.51515151,0,0,0.31050232,25.594018,30.831715)" /><linearGradient
       id="GoldMedal"><stop
         style="stop-color:#fffa9a;stop-opacity:1;"
         offset="0.36712328"
         id="stop3948" /><stop
         style="stop-color:#aa8b00;stop-opacity:1;"
         offset="0.99178082"
         id="stop3950" /></linearGradient><linearGradient
       inkscape:collect="always"
       xlink:href="#GoldMedal"
       id="linearGradient2282"
       x1="10.150614"
       y1="3.2619278"
       x2="10.044128"
       y2="11.480039"
       gradientUnits="userSpaceOnUse" /><linearGradient
       inkscape:collect="always"
       xlink:href="#SilverMedal"
       id="linearGradient2337"
       x1="10.072717"
       y1="3.2619278"
       x2="9.9662313"
       y2="12.220058"
       gradientUnits="userSpaceOnUse" /><linearGradient
       inkscape:collect="always"
       xlink:href="#BronzeMedal"
       id="linearGradient2345"
       x1="9.9948196"
       y1="3.3787732"
       x2="10.00518"
       y2="11.012658"
       gradientUnits="userSpaceOnUse" /><linearGradient
       inkscape:collect="always"
       xlink:href="#GoldMedal"
       id="linearGradient3115"
       gradientUnits="userSpaceOnUse"
       x1="10.150614"
       y1="3.2619278"
       x2="10.044128"
       y2="11.480039" /><linearGradient
       inkscape:collect="always"
       xlink:href="#GoldMedal"
       id="linearGradient3117"
       gradientUnits="userSpaceOnUse"
       x1="10.150614"
       y1="3.2619278"
       x2="10.044128"
       y2="11.480039" /><linearGradient
       inkscape:collect="always"
       xlink:href="#GoldMedal"
       id="linearGradient3151"
       x1="6.8400002"
       y1="10"
       x2="13.16"
       y2="10"
       gradientUnits="userSpaceOnUse" /><linearGradient
       inkscape:collect="always"
       xlink:href="#SilverMedal"
       id="linearGradient3159"
       x1="6.8400002"
       y1="10"
       x2="13.16"
       y2="10"
       gradientUnits="userSpaceOnUse" /><linearGradient
       inkscape:collect="always"
       xlink:href="#BronzeMedal"
       id="linearGradient3167"
       x1="6.8400002"
       y1="10"
       x2="13.16"
       y2="10"
       gradientUnits="userSpaceOnUse" /><linearGradient
       inkscape:collect="always"
       xlink:href="#GoldMedal"
       id="linearGradient3169"
       gradientUnits="userSpaceOnUse"
       x1="9.9800406"
       y1="3.258148"
       x2="10.019959"
       y2="10.861972" /><linearGradient
       inkscape:collect="always"
       xlink:href="#SilverMedal"
       id="linearGradient3220"
       gradientUnits="userSpaceOnUse"
       x1="10.04161"
       y1="3.2273633"
       x2="10.019959"
       y2="11.015896" /><linearGradient
       inkscape:collect="always"
       xlink:href="#BronzeMedal"
       id="linearGradient3222"
       gradientUnits="userSpaceOnUse"
       x1="10.010825"
       y1="3.2581482"
       x2="10.050744"
       y2="11.015896" /></defs><sodipodi:namedview
     id="namedview14"
     pagecolor="#ffffff"
     bordercolor="#666666"
     borderopacity="1.0"
     inkscape:showpageshadow="2"
     inkscape:pageopacity="0.0"
     inkscape:pagecheckerboard="0"
     inkscape:deskcolor="#d1d1d1"
     showgrid="false"
     inkscape:zoom="0.94557118"
     inkscape:cx="239.00898"
     inkscape:cy="138.01182"
     inkscape:window-width="2560"
     inkscape:window-height="1377"
     inkscape:window-x="-8"
     inkscape:window-y="-8"
     inkscape:window-maximized="1"
     inkscape:current-layer="svg12"><inkscape:page
       x="0"
       y="0"
       width="104.7804"
       height="208.33333"
       id="page490" /><inkscape:page
       x="0"
       y="-37.455315"
       width="20"
       height="20"
       id="page492" /><inkscape:page
       x="29.815409"
       y="-37.455315"
       width="20"
       height="20"
       id="page494" /><inkscape:page
       x="60.696732"
       y="-37.455315"
       width="20"
       height="20"
       id="page496"
       inkscape:export-filename="..\PodiumMedalBronze.png"
       inkscape:export-xdpi="96"
       inkscape:export-ydpi="96" /><inkscape:page
       x="114.7804"
       y="0"
       width="104.7804"
       height="208.33333"
       id="page3121"
       inkscape:export-filename="..\PodiumMedalGold.png"
       inkscape:export-xdpi="96"
       inkscape:export-ydpi="96" /><inkscape:page
       x="229.56081"
       y="0"
       width="104.7804"
       height="208.33333"
       id="page3123"
       inkscape:export-filename="..\PodiumMedalSilver.png"
       inkscape:export-xdpi="96"
       inkscape:export-ydpi="96" /><inkscape:page
       x="344.34122"
       y="0"
       width="104.78041"
       height="208.33333"
       id="page3125"
       inkscape:export-filename="..\PodiumMedalBronze.png"
       inkscape:export-xdpi="96"
       inkscape:export-ydpi="96" /></sodipodi:namedview><g
     id="g4"><rect
       fill="none"
       height="20"
       width="20"
       x="0"
       id="rect2"
       y="0" /></g><g
     id="g10"
     transform="matrix(14.313948,0,0,14.313948,-91.067404,-39.941844)"><g
       id="g8"><path
         d="M 13.16,13.29 10.89,13.1 10.33,11.79 12.78,10.16 C 12.92,10.06 13,9.9 13,9.73 V 3 H 7 v 6.73 c 0,0.17 0.08,0.32 0.22,0.42 L 9.67,11.78 9.11,13.09 6.84,13.28 8.56,14.77 8.05,17 10,15.82 11.95,17 11.43,14.78 Z M 10.5,4 H 12 v 5.46 l -1.5,1 z m -1,6.46 -1.5,-1 V 4 h 1.5 z"
         id="path6" /></g></g><g
     id="g500"><rect
       fill="none"
       height="20"
       width="20"
       x="0"
       id="rect498"
       y="0" /></g><g
     id="g506"
     transform="translate(6.2478707e-6,-37.455315)"
     style="fill:url(#linearGradient2282);fill-opacity:1;stroke:#000000;stroke-width:0.166667;stroke-dasharray:none;stroke-opacity:1"><g
       id="g504"
       style="fill:url(#linearGradient3117);fill-opacity:1;stroke:#000000;stroke-width:0.166667;stroke-dasharray:none;stroke-opacity:1"><path
         d="M 13.16,13.29 10.89,13.1 10.33,11.79 12.78,10.16 C 12.92,10.06 13,9.9 13,9.73 V 3 H 7 v 6.73 c 0,0.17 0.08,0.32 0.22,0.42 L 9.67,11.78 9.11,13.09 6.84,13.28 8.56,14.77 8.05,17 10,15.82 11.95,17 11.43,14.78 Z M 10.5,4 H 12 v 5.46 l -1.5,1 z m -1,6.46 -1.5,-1 V 4 h 1.5 z"
         id="path502"
         style="fill:url(#linearGradient3115);fill-opacity:1;stroke:#000000;stroke-width:0.166667;stroke-dasharray:none;stroke-opacity:1" /></g></g><g
     id="g578"
     transform="translate(29.81542,-37.455315)"
     style="stroke:#000000;stroke-width:0.166667;stroke-dasharray:none;stroke-opacity:1"><g
       id="g576"
       style="stroke:#000000;stroke-width:0.166667;stroke-dasharray:none;stroke-opacity:1"><path
         d="M 13.16,13.29 10.89,13.1 10.33,11.79 12.78,10.16 C 12.92,10.06 13,9.9 13,9.73 V 3 H 7 v 6.73 c 0,0.17 0.08,0.32 0.22,0.42 L 9.67,11.78 9.11,13.09 6.84,13.28 8.56,14.77 8.05,17 10,15.82 11.95,17 11.43,14.78 Z M 10.5,4 H 12 v 5.46 l -1.5,1 z m -1,6.46 -1.5,-1 V 4 h 1.5 z"
         id="path574"
         style="fill:url(#linearGradient2337);fill-opacity:1;stroke:#000000;stroke-width:0.166667;stroke-dasharray:none;stroke-opacity:1" /></g></g><g
     id="g584"
     transform="translate(60.696727,-37.455315)"
     style="stroke:#000000;stroke-width:0.166667;stroke-dasharray:none;stroke-opacity:1"><g
       id="g582"
       style="stroke:#000000;stroke-width:0.166667;stroke-dasharray:none;stroke-opacity:1"><path
         d="M 13.16,13.29 10.89,13.1 10.33,11.79 12.78,10.16 C 12.92,10.06 13,9.9 13,9.73 V 3 H 7 v 6.73 c 0,0.17 0.08,0.32 0.22,0.42 L 9.67,11.78 9.11,13.09 6.84,13.28 8.56,14.77 8.05,17 10,15.82 11.95,17 11.43,14.78 Z M 10.5,4 H 12 v 5.46 l -1.5,1 z m -1,6.46 -1.5,-1 V 4 h 1.5 z"
         id="path580"
         style="fill:url(#linearGradient2345);fill-opacity:1;stroke:#000000;stroke-width:0.166667;stroke-dasharray:none;stroke-opacity:1" /></g></g><g
     inkscape:groupmode="layer"
     id="layer3"
     inkscape:label="Gradients"
     style="display:inline"
     transform="matrix(1.5748032,0,0,1.5748032,-60.136319,-101.15628)"><rect
       style="fill:url(#linearGradient3987);fill-opacity:1;stroke:none;stroke-width:0;stroke-dasharray:none;stroke-opacity:1;stop-color:#000000"
       id="rect3938-2"
       width="4.3991475"
       height="4.399148"
       x="52.852352"
       y="55.325909"
       transform="matrix(3.4414465,0,0,3.4414465,-174.09619,-104.68526)"
       inkscape:label="BronzeMedal" /><rect
       style="fill:url(#linearGradient4029);fill-opacity:1;stroke:none;stroke-width:0;stroke-dasharray:none;stroke-opacity:1;stop-color:#000000"
       id="rect3938-2-1"
       width="4.3991475"
       height="4.399148"
       x="52.787659"
       y="49.95636"
       transform="matrix(3.4414465,0,0,3.4414465,-174.09619,-104.68526)"
       inkscape:label="SilverMedal" /><rect
       style="opacity:1;fill:url(#linearGradient3946);fill-opacity:1;stroke:none;stroke-width:0;stroke-dasharray:none;stroke-opacity:1;stop-color:#000000"
       id="rect3938"
       width="4.3991475"
       height="4.399148"
       x="52.787663"
       y="44.716198"
       transform="matrix(3.4414465,0,0,3.4414465,-174.09619,-104.68526)"
       inkscape:label="GoldMedal" /></g><g
     id="g3131"
     transform="matrix(14.313948,0,0,14.313948,23.770634,-39.941844)"
     style="stroke-width:0.13253389;stroke-dasharray:none;fill-opacity:1;fill:url(#linearGradient3151);stroke:#000000;stroke-opacity:1"><g
       id="g3129"
       style="stroke-width:0.13253389;stroke-dasharray:none;fill-opacity:1;fill:url(#linearGradient3151);stroke:#000000;stroke-opacity:1"><path
         d="M 13.16,13.29 10.89,13.1 10.33,11.79 12.78,10.16 C 12.92,10.06 13,9.9 13,9.73 V 3 H 7 v 6.73 c 0,0.17 0.08,0.32 0.22,0.42 L 9.67,11.78 9.11,13.09 6.84,13.28 8.56,14.77 8.05,17 10,15.82 11.95,17 11.43,14.78 Z M 10.5,4 H 12 v 5.46 l -1.5,1 z m -1,6.46 -1.5,-1 V 4 h 1.5 z"
         id="path3127"
         style="stroke-width:0.13253389;stroke-dasharray:none;fill-opacity:1;fill:url(#linearGradient3169);stroke:#000000;stroke-opacity:1" /></g></g><g
     id="g3137"
     transform="matrix(14.313948,0,0,14.313948,138.60867,-39.941844)"
     style="fill-opacity:1;fill:url(#linearGradient3159);stroke:#000000;stroke-opacity:1;stroke-width:0.13253389;stroke-dasharray:none"><g
       id="g3135"
       style="fill-opacity:1;fill:url(#linearGradient3159);stroke:#000000;stroke-opacity:1;stroke-width:0.13253389;stroke-dasharray:none"><path
         d="M 13.16,13.29 10.89,13.1 10.33,11.79 12.78,10.16 C 12.92,10.06 13,9.9 13,9.73 V 3 H 7 v 6.73 c 0,0.17 0.08,0.32 0.22,0.42 L 9.67,11.78 9.11,13.09 6.84,13.28 8.56,14.77 8.05,17 10,15.82 11.95,17 11.43,14.78 Z M 10.5,4 H 12 v 5.46 l -1.5,1 z m -1,6.46 -1.5,-1 V 4 h 1.5 z"
         id="path3133"
         style="fill-opacity:1;fill:url(#linearGradient3220);stroke:#000000;stroke-opacity:1;stroke-width:0.13253389;stroke-dasharray:none" /></g></g><g
     id="g3143"
     transform="matrix(14.313948,0,0,14.313948,253.44671,-39.941844)"
     style="fill-opacity:1;fill:url(#linearGradient3167);stroke:#000000;stroke-opacity:1;stroke-width:0.13253389;stroke-dasharray:none"><g
       id="g3141"
       style="fill-opacity:1;fill:url(#linearGradient3167);stroke:#000000;stroke-opacity:1;stroke-width:0.13253389;stroke-dasharray:none"><path
         d="M 13.16,13.29 10.89,13.1 10.33,11.79 12.78,10.16 C 12.92,10.06 13,9.9 13,9.73 V 3 H 7 v 6.73 c 0,0.17 0.08,0.32 0.22,0.42 L 9.67,11.78 9.11,13.09 6.84,13.28 8.56,14.77 8.05,17 10,15.82 11.95,17 11.43,14.78 Z M 10.5,4 H 12 v 5.46 l -1.5,1 z m -1,6.46 -1.5,-1 V 4 h 1.5 z"
         id="path3139"
         style="fill-opacity:1;fill:url(#linearGradient3222);stroke:#000000;stroke-opacity:1;stroke-width:0.13253389;stroke-dasharray:none" /></g></g></svg>
